<svg width="24" height="24" viewBox="0 0 24 24" fill="none" xmlns="http://www.w3.org/2000/svg">
<path d="M20.8347 24H3.1653L1.1655 12.8375H0V6.7489H3.54L9.2406 0L10.7592 1.32092L6.1743 6.7492H17.8257L13.2408 1.32092L14.7594 0L20.46 6.7489H24V12.8375H22.8345L20.8344 24H20.8347ZM4.8345 21.9704H19.1655L20.8017 12.8375H3.1983L4.8348 21.9704H4.8345ZM2.0001 10.8082H22.0002V8.77853H2.0001V10.8082ZM17.0001 19.941H15V14.8671H17.0001V19.941ZM12.9999 19.941H10.9998V14.8671H12.9999V19.941ZM9 19.941H6.9999V14.8671H9V19.941Z" fill="white"/>
</svg>
